<svg xmlns="http://www.w3.org/2000/svg" version="1.1" xmlns:xlink="http://www.w3.org/1999/xlink" xmlns:svgjs="http://svgjs.dev/svgjs" width="100%" height="100%" viewBox="0 0 1000 600"><rect width="1000" height="600" x="0" y="0" fill="#262223"/><g><rect width="333.3333333333333" height="333.3333333333333" y="168.74736769524216" fill="#ddc6b6" transform="matrix(0.8530958883110868,0,0,0.8530958883110868,0,13.8596658796492)" x="146.525146484375"/><path d="M317.581693062166 410.4140137664451L262.9388375736418 410.4140137664451L262.9388375736418 403.3306806475624Q271.0935992315152 402.9140139935105 274.06978961760046 399.580680761095Q277.0757419075465 396.27710943254044 277.40312285001585 390.38425246809174Q277.73050379248525 384.49139550364305 277.73050379248525 376.9913957307084L277.73050379248525 376.9913957307084L277.73050379248525 284.40211281959796Q277.73050379248525 280.11639866363527 277.9388371195112 276.158065450142Q278.14717044653713 272.19973223664863 278.3555037735631 268.9854466196766L278.3555037735631 268.9854466196766Q274.51621817551325 269.19377994670265 270.64717067360243 269.40211327372856Q266.8078850755526 269.64020850461543 262.9388375736418 269.84854183164134L262.9388375736418 269.84854183164134L262.9388375736418 260.4140183077513L362.3733583727482 260.4140183077513L363.44478691173884 297.9140171724248L356.36145379285614 297.9140171724248Q356.36145379285614 285.2652080315627 352.2840729639194 278.7473510860361Q348.23645403884353 272.19973223664863 341.5697875740127 269.9378275432239Q334.93288301304267 267.70568475365997 326.8078832590301 267.914018080686L326.8078832590301 267.914018080686L311.15312182822197 268.33068473473793Q303.2364554012354 268.5687799656247 300.2305031112893 272.08068462120525Q297.22455082134326 275.62235118064666 296.8078841672913 281.42592243351277Q296.36145560937854 287.19973178251803 296.36145560937854 294.6997315554527L296.36145560937854 294.6997315554527L296.36145560937854 331.5449685351874L333.65312114702607 331.7830637660743L332.16502595398345 313.1223500453201L341.5697875740127 313.1223500453201L341.5697875740127 358.3306820099542L334.7245496860167 358.3306820099542Q334.7245496860167 348.6878251590382 332.04597833854007 344.6402062339623Q329.3674069910634 340.5628254050256 323.8019309690841 339.6997301930609Q318.23645494710473 338.83663498109615 309.2185980772666 339.28306353900894L309.2185980772666 339.28306353900894L296.36145560937854 339.9080635200869L296.36145560937854 384.908062157695Q296.36145560937854 390.71163341056115 296.272169897796 394.8782999510804Q296.15312228235257 399.04496649159967 295.7364556283007 401.84258545451974L295.7364556283007 401.84258545451974Q299.3674078993246 401.6342521274938 302.9983601703486 401.51520451205045Q306.6590743452333 401.4259188004678 310.29002661625725 401.18782356958104Q313.9507407911421 400.979490242555 317.581693062166 400.979490242555L317.581693062166 400.979490242555L317.581693062166 410.4140137664451Z " fill="#262223" transform="matrix(0.8530958883110868,0,0,0.8530958883110868,0,13.8596658796492)"/><path d="M604.2384670361946 410.4140184085436L604.2384670361946 410.4140184085436Q599.7798114161826 410.4140184085436 595.1049785539883 409.14397711072206Q590.430145691794 407.9009579681732 586.4578888666924 404.19892269579975Q582.4586098863181 400.4968874234262 580.1347045328573 393.39006058667985Q577.7837770241238 386.2832337499335 577.7837770241238 374.60966267208414L577.7837770241238 374.60966267208414L578.1891093532157 318.18740246247853L563.1918131768119 318.40357970466096L563.1918131768119 310.0267115700931Q568.2449562128254 309.83755648318345 573.5142764910213 306.24360983190104Q578.7565746139445 302.62264102534596 582.9450086812285 296.407545312602Q587.1334427485124 290.19244959985815 588.673705599062 282.788379055111L588.673705599062 282.788379055111L595.2941336408978 282.788379055111L595.2941336408978 310.0267115700931L627.9909415209854 310.0267115700931L627.9909415209854 317.61993720174974L595.2941336408978 317.9982473755689L594.9158234670787 372.09660223171375Q594.9158234670787 380.8517805401009 596.3750198518098 386.98580978702637Q597.834216236541 393.09281687867906 601.1309191798225 396.2273868903238Q604.4546442783769 399.3349347466958 609.6969424013 399.3349347466958L609.6969424013 399.3349347466958Q615.1554177664055 399.3349347466958 619.9113170944183 396.2273868903238Q624.667216422431 393.09281687867906 628.3692516948046 387.6613636688463L628.3692516948046 387.6613636688463L633.6385719730006 391.9308642019487Q629.3420492846253 398.36213715687495 625.1536152173414 402.0641724292485Q620.9922033053303 405.7391855463493 617.1010129460471 407.6037142601724Q613.209822586764 409.44122081872285 609.8860974882097 409.92761961363317Q606.5893945449282 410.4140184085436 604.2384670361946 410.4140184085436ZM642.9612155421164 407.3064705521716L642.9612155421164 401.46968501324693Q648.9871561679506 401.46968501324693 651.3380836766843 398.44320362269343Q653.661989030145 395.4437443874126 654.067321359237 390.09335764339835Q654.4456315330563 384.742970899384 654.4456315330563 377.7442326837289L654.4456315330563 377.7442326837289L654.4456315330563 333.37385372579195Q654.4456315330563 330.26630586941997 654.5537201541474 327.158758013048Q654.6347866199658 324.0241880014032 655.2292740359674 320.7274850581217L655.2292740359674 320.7274850581217Q651.7163938505034 320.91664014503124 648.3116022861307 321.0247287661225Q644.9068107217579 321.1057952319409 641.4209526915668 321.3219724741233L641.4209526915668 321.3219724741233L641.4209526915668 313.3234145133746L647.4468933174012 313.3234145133746Q655.7967392966962 313.3234145133746 659.0123757741594 311.6750630417338Q662.2280122516224 310.0267115700931 664.3627625181737 308.0811163904515L664.3627625181737 308.0811163904515L670.0103929701888 308.0811163904515Q670.3887031440081 311.18866424682346 670.6048803861904 315.7554084879265Q670.7940354730999 320.34917488430244 670.9831905600097 327.3479130999576L670.9831905600097 327.3479130999576Q673.901583329472 322.4839251508537 678.9547263654854 317.8090922886594Q684.007869401499 313.13425942646495 690.3310537353341 310.0267115700931Q696.6542380691692 306.9191637137211 703.679998440097 306.9191637137211L703.679998440097 306.9191637137211Q709.1114516499299 306.9191637137211 713.1917970961226 309.83755648318345Q717.2991646975881 312.7559492526458 717.2991646975881 319.1602000522993L717.2991646975881 319.1602000522993Q717.2991646975881 320.7274850581217 716.3263671077673 322.9703239457641Q715.3535695179467 325.2131628334064 713.1917970961226 326.8615143050472Q711.0570468295714 328.509865776688 707.5711887993803 328.509865776688L707.5711887993803 328.509865776688Q703.2746661110052 328.32071068977837 700.7616056706347 325.10507421231523Q698.2215230749916 321.8894377348521 698.8160104909932 317.61993720174974L698.8160104909932 317.61993720174974Q693.9520225418892 317.4307821148401 688.7907908847844 320.13299764212013Q683.6295592276797 322.86223532467284 679.1438814523951 327.6451568079584Q674.6852258323831 332.4010561359711 671.1723456469192 338.8323290908975L671.1723456469192 338.8323290908975L671.3615007338287 386.6885660790256Q671.3615007338287 390.57975643830866 671.2804342680104 393.5792156735895Q671.1723456469192 396.605697064143 670.6048803861904 399.9024000074246L670.6048803861904 399.9024000074246Q673.7124282425623 399.71324492051497 676.7118874778432 399.6321784546966Q679.7383688683967 399.52408983360533 682.8459167247686 399.3349347466958L682.8459167247686 399.3349347466958L682.8459167247686 407.3064705521716L642.9612155421164 407.3064705521716ZM814.1735913505747 407.3064705521716L786.367793574864 407.3064705521716Q785.7733061588624 404.0097676088901 785.5841510719529 401.46968501324693Q785.3949959850431 398.92960241760375 784.9896636559511 396.2273868903238L784.9896636559511 396.2273868903238Q778.3692356141153 402.82079277688695 770.6949435166403 406.63091667035167Q763.020651419165 410.4140184085436 754.4546281976877 410.4140184085436L754.4546281976877 410.4140184085436Q739.6735092634663 410.4140184085436 732.4585938056287 403.7125239008893Q725.2707005030641 396.98400723796215 725.2707005030641 387.2560313397544L725.2707005030641 387.2560313397544Q725.2707005030641 378.3116979444577 730.8102423339878 371.79935852371295Q736.3497841649119 365.2870191029682 745.21305109439 361.0985850356843Q754.0492958685957 356.91015096840033 764.4798478038963 354.88348932294036Q774.8833775839241 352.8298055222076 784.611353482132 353.01896060911724L784.611353482132 353.01896060911724L784.611353482132 340.9670793574486Q784.611353482132 334.15749622870305 783.4494008054016 328.13155560286873Q782.2604259733985 322.0785928217616 778.3692356141153 318.18740246247853Q774.4780452548321 314.29621210319533 765.9390441886276 314.1070570162858L765.9390441886276 314.1070570162858Q760.2914137366124 313.91790192937617 754.3465395765963 316.24180728283693Q748.4286875718533 318.5927347915705 745.6994498893005 324.24036524358564L745.6994498893005 324.24036524358564Q747.2397127398501 325.7806280941352 747.7261115347605 327.83431189486794Q748.212510329671 329.8609735403279 748.212510329671 331.61741363305987L748.212510329671 331.61741363305987Q748.212510329671 333.96834114179353 746.2669151500293 336.96780037707424Q744.3213199703878 339.99428176762785 739.4573320212837 339.8051266807182L739.4573320212837 339.8051266807182Q735.376986575091 339.8051266807182 733.24223630854 336.96780037707424Q731.1074860419888 334.15749622870305 731.1074860419888 330.26630586941997L731.1074860419888 330.26630586941997Q731.1074860419888 323.64587782758406 736.0525404569112 318.40357970466096Q741.0246170271062 313.13425942646495 749.7797953354932 310.0267115700931Q758.5349736438804 306.9191637137211 769.6140573057282 306.9191637137211L769.6140573057282 306.9191637137211Q785.9624612457719 306.9191637137211 793.7448419643383 315.566253401017Q801.5272226829045 324.24036524358564 801.338067595995 342.9126745370902L801.338067595995 342.9126745370902Q801.338067595995 350.1005678396549 801.338067595995 357.39654976331076Q801.338067595995 364.69253168696673 801.2299789749038 371.9885136106226Q801.1489125090852 379.28449553427845 801.1489125090852 386.6885660790256L801.1489125090852 386.6885660790256Q801.1489125090852 389.79611393539744 800.9597574221757 392.9036617917694Q800.7435801799934 396.0112096481414 800.3652700061741 399.9024000074246L800.3652700061741 399.9024000074246Q803.878150191638 399.71324492051497 807.2829417560108 399.52408983360533Q810.6877333203836 399.3349347466958 814.1735913505747 399.14577965978617L814.1735913505747 399.14577965978617L814.1735913505747 407.3064705521716ZM784.611353482132 359.63938865095315L784.611353482132 359.63938865095315Q777.990925440296 359.8285437378628 770.6949435166403 361.28774012259396Q763.3989615929843 362.74693650732513 757.2649323460587 365.6653292767875Q751.1309030991333 368.5837220462498 747.3478013609413 373.3666435295354Q743.5646996227495 378.12254285754807 743.753854709659 384.9321259862936L743.753854709659 384.9321259862936Q744.1321648834783 392.1200192888583 748.5097540376717 395.7409880954134Q752.8873431918653 399.3349347466958 758.9132838176995 399.3349347466958L758.9132838176995 399.3349347466958Q766.9118417784482 399.3349347466958 772.8296937831915 396.3084533561422Q778.7745679432073 393.3089941208615 784.611353482132 387.85051875575596L784.611353482132 387.85051875575596Q784.4221983952223 385.7157684892047 784.4221983952223 383.17568589356165Q784.4221983952223 380.66262545319125 784.4221983952223 377.93338777063843L784.4221983952223 377.93338777063843Q784.4221983952223 376.9605901808177 784.5032648610409 371.6912699026218Q784.611353482132 366.4489717796987 784.611353482132 359.63938865095315ZM875.0815293354651 410.4140184085436L875.0815293354651 410.4140184085436Q862.0298283387028 410.4140184085436 851.0588332979462 404.49616640380054Q840.0608161019168 398.5512922437846 833.5484766811721 387.3641199608455Q827.0091151051545 376.17694767790647 827.0091151051545 360.4230311538644L827.0091151051545 360.4230311538644Q827.0091151051545 350.2897229265644 830.7111503775282 340.77792427053896Q834.4131856499016 331.2391034592407 841.114680157556 323.5377892064929Q847.8431968204832 315.86349710901777 857.165840389599 311.377819333733Q866.5155061139876 306.9191637137211 877.8107670180179 306.9191637137211L877.8107670180179 306.9191637137211Q888.7006955929562 306.9191637137211 896.7803200195231 310.2158666570026Q904.8329222908176 313.539591755557 909.3186000661021 318.97104496538975Q913.8042778413869 324.4295203304953 913.8042778413869 330.83377113014876L913.8042778413869 330.83377113014876Q913.8042778413869 335.1302938185239 911.4533503326534 338.1297530538046Q909.1294449791926 341.15623444435823 904.6437672039078 341.15623444435823L904.6437672039078 341.15623444435823Q899.779779254804 341.34538953126776 897.7531176093439 338.1297530538046Q895.6994338086113 334.9411387316143 895.6994338086113 332.4010561359711L895.6994338086113 332.4010561359711Q895.6994338086113 330.4554609563296 896.2939212246129 328.40177715559673Q896.8613864853417 326.37511551013677 898.6178265780736 324.6186754174048L898.6178265780736 324.6186754174048Q897.0505415722512 319.9438425552105 893.159351212968 317.7010036675681Q889.268160853685 315.4851869351986 885.1067489416737 314.78261089810576Q880.9183148743898 314.1070570162858 878.189077191837 314.1070570162858L878.189077191837 314.1070570162858Q864.9482211081652 314.1070570162858 855.9228212470503 324.72676403849607Q846.8703992306623 335.31944890543343 846.8703992306623 355.5590432047604L846.8703992306623 355.5590432047604Q846.8703992306623 368.5837220462498 851.0588332979462 378.71703027354965Q855.2202452099575 388.8233163455767 862.8134708416142 394.55201326341023Q870.4066964732708 400.30773233651655 880.3238274583882 400.30773233651655L880.3238274583882 400.30773233651655Q889.4843380958673 400.30773233651655 897.8341840751623 395.4437443874126Q906.2110522097303 390.57975643830866 910.8858850719246 383.5810182226536L910.8858850719246 383.5810182226536L915.9390281079382 387.4722085819367Q910.8858850719246 395.63289947432224 903.7790582351784 400.6860425103357Q896.6722313984319 405.7391855463493 889.1870943878664 408.09011305508284Q881.7019573773009 410.4140184085436 875.0815293354651 410.4140184085436ZM969.0375632189894 407.3064705521716L929.3690392785195 407.3064705521716L929.3690392785195 401.46968501324693Q935.3949799043539 401.46968501324693 937.6378187919963 398.44320362269343Q939.8536355243657 395.4437443874126 940.2589678534578 390.09335764339835Q940.637278027277 384.742970899384 940.637278027277 377.7442326837289L940.637278027277 377.7442326837289L940.8264331141866 285.70677182457337Q940.8264331141866 282.59922396820144 940.9345217352777 279.76189766455747Q941.0426103563691 276.95159351618634 941.4209205301881 273.06040315690313L941.4209205301881 273.06040315690313Q937.9080403447242 273.24955824381277 934.5032487803514 273.4387133307224Q931.0984572159787 273.6548905729047 927.6125991857875 273.84404565981436L927.6125991857875 273.84404565981436L927.6125991857875 265.65633261215606Q936.178622407265 265.65633261215606 940.8264331141866 264.8997122645177Q945.5012659763809 264.11606976160647 947.9332599509328 262.9541170848761Q950.3652539254849 261.7651422528729 951.7433838443976 260.41403448923296L951.7433838443976 260.41403448923296L957.36399214114 260.41403448923296L957.36399214114 352.45149534838845L965.1463728597062 352.45149534838845L988.8988473444972 327.53706818686715Q992.1955502877786 324.24036524358564 994.9247879703314 321.5921940268513Q997.6540256528842 318.97104496538975 1000.383263335437 317.2146048726578L1000.383263335437 317.2146048726578L987.1424072517652 317.8090922886594L987.1424072517652 310.0267115700931L1022.5414306591326 310.0267115700931L1022.5414306591326 315.86349710901777Q1015.9480247725696 316.45798452501936 1010.1923056994633 320.05193117630165Q1004.4636087816298 323.64587782758406 999.6806872983441 328.13155560286873Q994.9247879703314 332.5902112228807 991.4119077848675 336.2922464952543L991.4119077848675 336.2922464952543L976.252478676827 352.235318106206Q980.1436690361099 353.991758198938 982.8729067186628 356.7209958814908Q985.5751222459428 359.4502335640435 988.3043599284956 362.74693650732513L988.3043599284956 362.74693650732513L1002.112681272896 380.4464482110088Q1003.0854788627169 381.635423043012 1005.5174728372688 384.9321259862936Q1007.9494668118207 388.2288289295751 1011.3542583761937 392.1200192888583Q1014.7590499405665 396.0112096481414 1018.5691738340311 398.7404473306942Q1022.3522755722231 401.46968501324693 1025.6760006707773 401.46968501324693L1025.6760006707773 401.46968501324693L1025.6760006707773 407.3064705521716L1007.9494668118207 407.3064705521716Q1002.5180136019881 407.3064705521716 997.6540256528842 401.65884010015657Q992.7900377037802 396.0112096481414 987.3315623386748 389.01247143248634L987.3315623386748 389.01247143248634Q982.2784193026612 382.01373321683127 978.2791403222868 376.28503629899774Q974.3068834971853 370.5293172258914 971.0912470197222 366.25981669278906Q967.875610542259 361.9632940044139 965.3625501018887 359.63938865095315L965.3625501018887 359.63938865095315L957.36399214114 360.0176988247723L957.36399214114 386.6885660790256Q957.36399214114 390.57975643830866 957.2829256753216 393.5792156735895Q957.1748370542302 396.605697064143 956.6073717935014 399.9024000074246L956.6073717935014 399.9024000074246Q959.7149196498735 399.71324492051497 962.8224675062454 399.6321784546966Q965.9300153626175 399.52408983360533 969.0375632189894 399.3349347466958L969.0375632189894 399.3349347466958L969.0375632189894 407.3064705521716Z " fill="#ddc6b6" transform="matrix(0.8530958883110868,0,0,0.8530958883110868,0,13.8596658796492)"/></g></svg>