<svg xmlns="http://www.w3.org/2000/svg" version="1.1" xmlns:xlink="http://www.w3.org/1999/xlink" xmlns:svgjs="http://svgjs.dev/svgjs" width="100%" height="100%" viewBox="0 0 1000 600"><rect width="1000" height="600" x="0" y="0" fill="#51a2ff"/><g><rect width="333.3333333333333" height="333.3333333333333" rx="13.333333333333334" ry="13.333333333333334" y="226.0667459828764" fill="#f3f4f6" transform="matrix(0.6132124153364618,0,0,0.6132124153364618,0,59.17099129513599)" x="203.8445281982422"/><path d="M306.1213171353584 317.7333913590505L355.61536325595523 317.7333913590505Q380.4665529797666 317.7333913590505 398.14512387311265 326.8405339404712Q415.82369476645874 335.9476765218919 425.3772659057922 352.88219981871663Q434.90107514126487 369.81672311554144 434.90107514126487 393.15005574244935L434.90107514126487 393.15005574244935Q434.90107514126487 416.30481694619215 425.3772659057922 433.031006915991Q415.82369476645874 449.7274349819289 398.14512387311265 458.74529185176704Q380.4665529797666 467.73338681774436 355.61536325595523 467.73338681774436L355.61536325595523 467.73338681774436L306.1213171353584 467.73338681774436L306.1213171353584 317.7333913590505ZM323.26417375920914 452.73338727187496L355.61536325595523 452.73338727187496Q386.2701242326327 452.73338727187496 401.89512375958 437.07862584106687Q417.5498851903882 421.45362631411956 417.5498851903882 393.15005574244935L417.5498851903882 393.15005574244935Q417.5498851903882 364.667913747614 401.89512375958 348.6857713743365Q386.2701242326327 332.7333909049199 355.61536325595523 332.7333909049199L355.61536325595523 332.7333909049199L323.26417375920914 332.7333909049199L323.26417375920914 452.73338727187496Z " fill="b" transform="matrix(0.6132124153364618,0,0,0.6132124153364618,0,59.17099129513599)"/><path d="M620.5112020714645 466.300459786839L620.5112020714645 321.86026150712604L715.2284352687763 321.86026150712604L715.2284352687763 336.30428133509736L637.0186533034316 336.30428133509736L637.0186533034316 385.62602364449936L695.8264483173148 385.62602364449936L695.8264483173148 400.0700434724706L637.0186533034316 400.0700434724706L637.0186533034316 466.300459786839L620.5112020714645 466.300459786839ZM743.0847592227209 466.300459786839L743.0847592227209 363.12888958704406L758.3598833661906 363.12888958704406L758.3598833661906 466.300459786839L743.0847592227209 466.300459786839ZM750.9086032962053 342.49457554708505L750.9086032962053 342.49457554708505Q746.1799063287148 342.49457554708505 743.0847592227209 339.3994284410912Q739.989612116727 336.30428133509736 739.989612116727 331.77619575410637L739.989612116727 331.77619575410637Q739.989612116727 327.0188400171158 743.0847592227209 323.923692911122Q746.1799063287148 320.82854580512816 750.9086032962053 320.82854580512816L750.9086032962053 320.82854580512816Q755.2647362601967 320.82854580512816 758.4458596746904 323.923692911122Q761.655641858684 327.0188400171158 761.655641858684 331.77619575410637L761.655641858684 331.77619575410637Q761.655641858684 336.30428133509736 758.4458596746904 339.3994284410912Q755.2647362601967 342.49457554708505 750.9086032962053 342.49457554708505ZM793.2089470781212 466.300459786839L793.2089470781212 363.12888958704406L807.452355519593 363.12888958704406L808.2834598350913 377.77352080151496Q813.2414269585815 370.1502881145301 821.2945411880655 365.9087902285385Q829.3189966480495 361.6959511120469 840.0660352105282 361.6959511120469L840.0660352105282 361.6959511120469Q851.8161307055047 361.6959511120469 860.7003492504872 366.7398945440369Q869.5559090259695 371.78383797602686 874.5138761494597 381.81440730100695Q879.4718432729499 391.81631785648705 879.4718432729499 406.8621718439571L879.4718432729499 406.8621718439571L879.4718432729499 466.300459786839L863.9961077429806 466.300459786839L863.9961077429806 408.7249918614534Q863.9961077429806 392.6474221719854 857.0893442934944 384.279061478002Q850.182580844008 375.9107007840187 837.171499491034 375.9107007840187L837.171499491034 375.9107007840187Q823.7591953650606 375.9107007840187 816.2219389865755 384.794919329001Q808.6846826080905 393.67913787398334 808.6846826080905 410.98903465194894L808.6846826080905 410.98903465194894L808.6846826080905 466.300459786839L793.2089470781212 466.300459786839ZM988.2032147557337 466.300459786839L973.9884650837621 466.300459786839L972.7274792257645 447.72957715087585Q968.4000050312732 457.21562985535707 959.9456680287899 462.4888434433466Q951.4913310263066 467.73339826183616 938.4802496733325 467.73339826183616L938.4802496733325 467.73339826183616Q927.3319883378547 467.73339826183616 919.5081442643702 464.2370283828431Q911.6556414213858 460.74065850385006 907.4428023048943 454.235117827363Q903.2013044189027 447.72957715087585 903.2013044189027 438.8453586058936L903.2013044189027 438.8453586058936Q903.2013044189027 425.8629360224194 912.8879685098834 417.494575328436Q922.6032913703641 409.1548734039526 940.9735626198276 407.2920533864563L940.9735626198276 407.2920533864563L972.7274792257645 403.76702473796325L972.7274792257645 395.5132991219797Q972.7274792257645 386.8583507329969 966.3365736272772 381.58513714500737Q959.9456680287899 376.3405823265178 948.9980180798117 376.3405823265178L948.9980180798117 376.3405823265178Q938.279638286833 376.3405823265178 931.1722634508471 381.29854945000795Q924.0362298453613 386.2278578039981 921.3709642818666 395.5132991219797L921.3709642818666 395.5132991219797L907.3281672268945 390.58399076798946Q911.4550300348862 376.9424164860166 922.4886562923643 369.31918379903175Q933.5222825498424 361.6959511120469 949.4278996223109 361.6959511120469L949.4278996223109 361.6959511120469Q967.7981708717743 361.6959511120469 978.0006928137541 371.0673687385283Q988.2032147557337 380.4674451345096 988.2032147557337 396.5450148239776L988.2032147557337 396.5450148239776L988.2032147557337 466.300459786839ZM972.7274792257645 420.2744759699305L972.7274792257645 416.97871747743704L940.7442924638281 420.7043575124296Q930.4271354438486 421.93668460092715 925.0679455473592 426.3787938734184Q919.7087556508699 430.82090314590954 919.7087556508699 438.04291305989517L919.7087556508699 438.04291305989517Q919.7087556508699 445.2649229738808 924.9819692388594 449.5923971683722Q930.226524057349 453.9198713628636 940.1424583043292 453.9198713628636L940.1424583043292 453.9198713628636Q951.4913310263066 453.9198713628636 958.7133409402923 449.3917857818726Q965.935350854278 444.8350414313817 969.3457444247713 437.09717366639705Q972.7274792257645 429.3593059014124 972.7274792257645 420.2744759699305L972.7274792257645 420.2744759699305ZM1018.3522402696739 466.300459786839L1018.3522402696739 363.12888958704406L1032.5669899416457 363.12888958704406L1033.3980942571438 377.77352080151496Q1038.356061380634 370.1502881145301 1046.409175610118 365.9087902285385Q1054.4622898396021 361.6959511120469 1065.1806696325807 361.6959511120469L1065.1806696325807 361.6959511120469Q1076.9307651275574 361.6959511120469 1085.8149836725397 366.7398945440369Q1094.6992022175223 371.78383797602686 1099.6285105715124 381.81440730100695Q1104.5864776950025 391.81631785648705 1104.5864776950025 406.8621718439571L1104.5864776950025 406.8621718439571L1104.5864776950025 466.300459786839L1089.1107421650331 466.300459786839L1089.1107421650331 408.7249918614534Q1089.1107421650331 392.6474221719854 1082.203978715547 384.279061478002Q1075.2972152660607 375.9107007840187 1062.2861339130866 375.9107007840187L1062.2861339130866 375.9107007840187Q1048.8738297871132 375.9107007840187 1041.3365734086283 384.794919329001Q1033.8279757996431 393.67913787398334 1033.8279757996431 410.98903465194894L1033.8279757996431 410.98903465194894L1033.8279757996431 466.300459786839L1018.3522402696739 466.300459786839ZM1178.4687854658555 467.73339826183616L1178.4687854658555 467.73339826183616Q1163.3942727088856 467.73339826183616 1152.0453999869083 461.14188127684923Q1140.6965272649309 454.55036429186237 1134.4202567444431 442.6856337188859Q1128.1153274544558 430.82090314590954 1128.1153274544558 415.11589745994075L1128.1153274544558 415.11589745994075Q1128.1153274544558 399.2389391569723 1134.4202567444431 387.17359719749624Q1140.6965272649309 375.10825523802026 1152.0453999869083 368.4021031750336Q1163.3942727088856 361.6959511120469 1178.4687854658555 361.6959511120469L1178.4687854658555 361.6959511120469Q1194.345743768824 361.6959511120469 1206.3251094198004 369.0039373345324Q1218.2758163012763 376.3405823265178 1223.663664967266 389.323004909992L1223.663664967266 389.323004909992L1209.4202565257942 394.28097203348216Q1206.3251094198004 386.02724641749853 1198.1573601123164 381.1839143720082Q1190.0182695743326 376.3405823265178 1179.299889781354 376.3405823265178L1179.299889781354 376.3405823265178Q1168.7534626053748 376.3405823265178 1161.0155948403903 381.0692792940084Q1153.277727075406 385.82663503099894 1149.064887958914 394.48158341998175Q1144.8233900729224 403.1651905784645 1144.8233900729224 414.9152860734411L1144.8233900729224 414.9152860734411Q1144.8233900729224 432.25384162090666 1154.108831390904 442.6856337188859Q1163.3942727088856 453.08876704736525 1178.8700082388548 453.08876704736525L1178.8700082388548 453.08876704736525Q1189.3877766453338 453.08876704736525 1197.6415022613176 448.3600700798747Q1205.895227877301 443.6027143428841 1209.8214792987933 435.5496001134001L1209.8214792987933 435.5496001134001L1223.8642763537655 440.5075672368903Q1218.2758163012763 453.2893784338649 1206.3251094198004 460.5113883478505Q1194.345743768824 467.73339826183616 1178.4687854658555 467.73339826183616ZM1252.322434467209 466.300459786839L1252.322434467209 363.12888958704406L1267.5975586106786 363.12888958704406L1267.5975586106786 466.300459786839L1252.322434467209 466.300459786839ZM1260.1749373101932 342.49457554708505L1260.1749373101932 342.49457554708505Q1255.4175815732028 342.49457554708505 1252.322434467209 339.3994284410912Q1249.227287361215 336.30428133509736 1249.227287361215 331.77619575410637L1249.227287361215 331.77619575410637Q1249.227287361215 327.0188400171158 1252.322434467209 323.923692911122Q1255.4175815732028 320.82854580512816 1260.1749373101932 320.82854580512816L1260.1749373101932 320.82854580512816Q1264.5024115046847 320.82854580512816 1267.7121936886783 323.923692911122Q1270.893317103172 327.0188400171158 1270.893317103172 331.77619575410637L1270.893317103172 331.77619575410637Q1270.893317103172 336.30428133509736 1267.7121936886783 339.3994284410912Q1264.5024115046847 342.49457554708505 1260.1749373101932 342.49457554708505ZM1381.2868972169526 466.300459786839L1367.072147544981 466.300459786839L1365.8111616869833 447.72957715087585Q1361.483687492492 457.21562985535707 1353.0293504900087 462.4888434433466Q1344.5750134875254 467.73339826183616 1331.5639321345514 467.73339826183616L1331.5639321345514 467.73339826183616Q1320.4156707990737 467.73339826183616 1312.591826725589 464.2370283828431Q1304.7393238826048 460.74065850385006 1300.526484766113 454.235117827363Q1296.2849868801213 447.72957715087585 1296.2849868801213 438.8453586058936L1296.2849868801213 438.8453586058936Q1296.2849868801213 425.8629360224194 1305.9716509711022 417.494575328436Q1315.686973831583 409.1548734039526 1334.0572450810464 407.2920533864563L1334.0572450810464 407.2920533864563L1365.8111616869833 403.76702473796325L1365.8111616869833 395.5132991219797Q1365.8111616869833 386.8583507329969 1359.420256088496 381.58513714500737Q1353.0293504900087 376.3405823265178 1342.0817005410304 376.3405823265178L1342.0817005410304 376.3405823265178Q1331.3633207480516 376.3405823265178 1324.255945912066 381.29854945000795Q1317.11991230658 386.2278578039981 1314.4546467430853 395.5132991219797L1314.4546467430853 395.5132991219797L1300.4118496881133 390.58399076798946Q1304.5387124961053 376.9424164860166 1315.5723387535832 369.31918379903175Q1326.605965011061 361.6959511120469 1342.5115820835297 361.6959511120469L1342.5115820835297 361.6959511120469Q1360.8818533329932 361.6959511120469 1371.084375274973 371.0673687385283Q1381.2868972169526 380.4674451345096 1381.2868972169526 396.5450148239776L1381.2868972169526 396.5450148239776L1381.2868972169526 466.300459786839ZM1365.8111616869833 420.2744759699305L1365.8111616869833 416.97871747743704L1333.8279749250469 420.7043575124296Q1323.5108179050674 421.93668460092715 1318.151628008578 426.3787938734184Q1312.7924381120888 430.82090314590954 1312.7924381120888 438.04291305989517L1312.7924381120888 438.04291305989517Q1312.7924381120888 445.2649229738808 1318.0656517000782 449.5923971683722Q1323.3102065185678 453.9198713628636 1333.226140765548 453.9198713628636L1333.226140765548 453.9198713628636Q1344.5750134875254 453.9198713628636 1351.797023401511 449.3917857818726Q1359.019033315497 444.8350414313817 1362.4294268859899 437.09717366639705Q1365.8111616869833 429.3593059014124 1365.8111616869833 420.2744759699305L1365.8111616869833 420.2744759699305ZM1411.4359227308928 466.300459786839L1411.4359227308928 317.7333986991343L1426.9116582608617 317.7333986991343L1426.9116582608617 466.300459786839L1411.4359227308928 466.300459786839Z " fill="white" transform="matrix(0.6132124153364618,0,0,0.6132124153364618,0,59.17099129513599)"/></g></svg>